<?xml version="1.0" encoding="utf-8"?>
<!-- Generator: Adobe Illustrator 17.0.0, SVG Export Plug-In . SVG Version: 6.00 Build 0)  -->
<!DOCTYPE svg PUBLIC "-//W3C//DTD SVG 1.1//EN" "http://www.w3.org/Graphics/SVG/1.1/DTD/svg11.dtd">
<svg version="1.1" id="Layer_1" xmlns="http://www.w3.org/2000/svg" xmlns:xlink="http://www.w3.org/1999/xlink" x="0px" y="0px"
	 width="1381.622px" height="472.978px" viewBox="0 0 1381.622 472.978" enable-background="new 0 0 1381.622 472.978"
	 xml:space="preserve">
<title>European roulette layout</title>
<desc>
	European roulette table and wheel layout - First published Betzaar.com under the CreativeCommons Attribution+ShareAlike licence
	</desc>
<text transform="matrix(1 0 0 1 577.5599 380)" fill="#FFFFFF" font-family="'HelveticaNeue-Light'" font-size="24">European roulette</text>
<g>
	<g>
		<g>
			<g id="XMLID_3_">
				<g opacity="0.5">
					<rect x="1174.058" y="204.24" fill="#FF0000" width="53.832" height="66.698"/>
					<rect x="1174.058" y="137.634" width="53.832" height="66.606"/>
					<rect x="1174.058" y="70.936" fill="#FF0000" width="53.832" height="66.704"/>
					<rect x="1120.228" y="204.24" width="53.828" height="66.698"/>
					<rect x="1120.228" y="137.634" fill="#FF0000" width="53.828" height="66.606"/>
					<rect x="1120.228" y="70.936" width="53.828" height="66.704"/>
					<rect x="1066.396" y="204.24" fill="#FF0000" width="53.832" height="66.698"/>
					<rect x="1066.396" y="137.634" width="53.832" height="66.606"/>
					<rect x="1066.396" y="70.936" fill="#FF0000" width="53.832" height="66.704"/>
					<rect x="1012.568" y="204.24" fill="#FF0000" width="53.828" height="66.698"/>
					<rect x="1012.568" y="137.634" width="53.828" height="66.606"/>
					<rect x="1012.568" y="70.936" fill="#FF0000" width="53.828" height="66.704"/>
					<rect x="958.718" y="204.24" width="53.852" height="66.698"/>
					<rect x="958.718" y="137.634" fill="#FF0000" width="53.852" height="66.606"/>
					<rect x="958.718" y="70.936" width="53.852" height="66.704"/>
					<rect x="904.722" y="204.24" width="53.996" height="66.698"/>
					<rect x="904.722" y="137.634" width="53.996" height="66.606"/>
					<rect x="904.722" y="70.936" fill="#FF0000" width="53.996" height="66.704"/>
					<rect x="850.89" y="204.24" fill="#FF0000" width="53.832" height="66.698"/>
					<rect x="850.89" y="137.634" width="53.832" height="66.606"/>
					<rect x="850.89" y="70.936" fill="#FF0000" width="53.832" height="66.704"/>
					<rect x="797.06" y="204.24" width="53.828" height="66.698"/>
					<rect x="797.06" y="137.634" fill="#FF0000" width="53.828" height="66.606"/>
					<rect x="797.06" y="70.936" width="53.828" height="66.704"/>
					<rect x="743.23" y="204.24" width="53.832" height="66.698"/>
					<rect x="743.23" y="137.634" width="53.832" height="66.606"/>
					<rect x="743.23" y="70.936" fill="#FF0000" width="53.832" height="66.704"/>
					<rect x="689.398" y="204.24" fill="#FF0000" width="53.832" height="66.698"/>
					<rect x="689.398" y="137.634" width="53.832" height="66.606"/>
					<rect x="689.398" y="70.936" fill="#FF0000" width="53.832" height="66.704"/>
					<rect x="635.568" y="204.24" width="53.83" height="66.698"/>
					<rect x="635.568" y="137.634" fill="#FF0000" width="53.83" height="66.606"/>
					<rect x="635.568" y="70.936" width="53.83" height="66.704"/>
					<rect x="581.718" y="204.24" fill="#FF0000" width="53.85" height="66.698"/>
					<rect x="581.718" y="137.634" width="53.85" height="66.606"/>
					<rect x="581.718" y="70.936" fill="#FF0000" width="53.85" height="66.704"/>
				</g>
				<g>
					<polygon fill="none" stroke="#FFFFFF" points="581.718,137.634 581.718,70.936 635.568,70.936 689.398,70.936 743.23,70.936 
						797.06,70.936 850.89,70.936 904.722,70.936 958.718,70.936 1012.568,70.936 1066.396,70.936 1120.228,70.936 1174.058,70.936 
						1227.89,70.936 1281.718,70.936 1281.718,137.634 1281.718,204.24 1281.718,270.938 1227.89,270.938 1174.058,270.938 
						1120.228,270.938 1066.396,270.938 1012.568,270.938 958.718,270.938 904.722,270.938 850.89,270.938 797.06,270.938 
						743.23,270.938 689.398,270.938 635.568,270.938 581.718,270.938 581.718,204.24 					"/>
					<polyline fill="none" stroke="#FFFFFF" points="581.718,204.24 635.568,204.24 689.398,204.24 743.23,204.24 797.06,204.24 
						850.89,204.24 904.722,204.24 958.718,204.24 1012.568,204.24 1066.396,204.24 1120.228,204.24 1174.058,204.24 
						1227.89,204.24 1281.718,204.24 					"/>
					<polyline fill="none" stroke="#FFFFFF" points="581.718,137.634 635.568,137.634 689.398,137.634 743.23,137.634 
						797.06,137.634 850.89,137.634 904.722,137.634 958.718,137.634 1012.568,137.634 1066.396,137.634 1120.228,137.634 
						1174.058,137.634 1227.89,137.634 1281.718,137.634 					"/>
					<polyline fill="none" stroke="#FFFFFF" points="1227.89,70.936 1227.89,137.634 1227.89,204.24 1227.89,270.938 					"/>
					<polyline fill="none" stroke="#FFFFFF" points="1174.058,70.936 1174.058,137.634 1174.058,204.24 1174.058,270.938 					"/>
					<polyline fill="none" stroke="#FFFFFF" points="1120.228,70.936 1120.228,137.634 1120.228,204.24 1120.228,270.938 					"/>
					<polyline fill="none" stroke="#FFFFFF" points="1066.396,70.936 1066.396,137.634 1066.396,204.24 1066.396,270.938 					"/>
					<polyline fill="none" stroke="#FFFFFF" points="1012.568,70.936 1012.568,137.634 1012.568,204.24 1012.568,270.938 					"/>
					<polyline fill="none" stroke="#FFFFFF" points="958.718,70.936 958.718,137.634 958.718,204.24 958.718,270.938 					"/>
					<polyline fill="none" stroke="#FFFFFF" points="904.722,70.936 904.722,137.634 904.722,204.24 904.722,270.938 					"/>
					<polyline fill="none" stroke="#FFFFFF" points="850.89,70.936 850.89,137.634 850.89,204.24 850.89,270.938 					"/>
					<polyline fill="none" stroke="#FFFFFF" points="797.06,70.936 797.06,137.634 797.06,204.24 797.06,270.938 					"/>
					<polyline fill="none" stroke="#FFFFFF" points="743.23,70.936 743.23,137.634 743.23,204.24 743.23,270.938 					"/>
					<polyline fill="none" stroke="#FFFFFF" points="689.398,70.936 689.398,137.634 689.398,204.24 689.398,270.938 					"/>
					<polyline fill="none" stroke="#FFFFFF" points="635.568,70.936 635.568,137.634 635.568,204.24 635.568,270.938 					"/>
				</g>
			</g>
		</g>
		<g>
			<g>
				<g id="XMLID_1_">
					<g opacity="0.5">
						<rect x="904.722" y="311.2" width="107.722" height="40"/>
						<rect x="797" y="311.2" fill="#FF0000" width="107.72" height="40"/>
					</g>
					<g>
						<polygon fill="none" stroke="#FFFFFF" points="581.722,311.2 581.722,271.2 797,271.2 1012.44,271.2 1227.722,271.2 
							1227.722,311.2 1227.722,351.2 1120.002,351.2 1012.44,351.2 904.722,351.2 797,351.2 689.44,351.2 581.722,351.2 						"/>
						<polyline fill="none" stroke="#FFFFFF" points="581.722,311.2 689.44,311.2 797,311.2 904.722,311.2 1012.44,311.2 
							1120.002,311.2 1227.722,311.2 						"/>
						<line fill="none" stroke="#FFFFFF" x1="1120.002" y1="311.2" x2="1120.002" y2="351.2"/>
						<polyline fill="none" stroke="#FFFFFF" points="1012.44,271.2 1012.44,311.2 1012.44,351.2 						"/>
						<line fill="none" stroke="#FFFFFF" x1="904.722" y1="311.2" x2="904.722" y2="351.2"/>
						<polyline fill="none" stroke="#FFFFFF" points="797,271.2 797,311.2 797,351.2 						"/>
						<line fill="none" stroke="#FFFFFF" x1="689.44" y1="311.2" x2="689.44" y2="351.2"/>
					</g>
				</g>
			</g>
		</g>
		<path fill="none" stroke="#FFFFFF" d="M581.606,270.936c-13.626,0-27.252,0-40.878,0l-13.122-102l13.122-98
			c13.626,0,27.252,0,40.878,0"/>
	</g>
	<g>
		
			<text transform="matrix(-4.371139e-08 -1 1 -4.371139e-08 617.2527 246.5306)" fill="#FFFFFF" font-family="'HelveticaNeue-Light'" font-size="28">1</text>
		
			<text transform="matrix(-4.371139e-08 -1 1 -4.371139e-08 565.1022 180.4408)" fill="#FFFFFF" font-family="'HelveticaNeue-Light'" font-size="28">0</text>
		
			<text transform="matrix(-4.371139e-08 -1 1 -4.371139e-08 617.2527 180.4408)" fill="#FFFFFF" font-family="'HelveticaNeue-Light'" font-size="28">2</text>
		
			<text transform="matrix(-4.371139e-08 -1 1 -4.371139e-08 617.2527 113.0775)" fill="#FFFFFF" font-family="'HelveticaNeue-Light'" font-size="28">3</text>
		
			<text transform="matrix(-4.371139e-08 -1 1 -4.371139e-08 672.5886 246.5306)" fill="#FFFFFF" font-family="'HelveticaNeue-Light'" font-size="28">4</text>
		
			<text transform="matrix(-4.371139e-08 -1 1 -4.371139e-08 672.5886 113.0775)" fill="#FFFFFF" font-family="'HelveticaNeue-Light'" font-size="28">6</text>
		
			<text transform="matrix(-4.371139e-08 -1 1 -4.371139e-08 672.5886 180.4408)" fill="#FFFFFF" font-family="'HelveticaNeue-Light'" font-size="28">5</text>
		
			<text transform="matrix(-4.371139e-08 -1 1 -4.371139e-08 725.4557 246.5306)" fill="#FFFFFF" font-family="'HelveticaNeue-Light'" font-size="28">7</text>
		
			<text transform="matrix(-4.371139e-08 -1 1 -4.371139e-08 725.4557 180.4408)" fill="#FFFFFF" font-family="'HelveticaNeue-Light'" font-size="28">8</text>
		
			<text transform="matrix(-4.371139e-08 -1 1 -4.371139e-08 725.4557 113.0775)" fill="#FFFFFF" font-family="'HelveticaNeue-Light'" font-size="28">9</text>
		
			<text transform="matrix(-4.371139e-08 -1 1 -4.371139e-08 778.7917 255.4291)" fill="#FFFFFF" font-family="'HelveticaNeue-Light'" font-size="28">10</text>
		
			<text transform="matrix(-4.371139e-08 -1 1 -4.371139e-08 778.7917 121.9799)" fill="#FFFFFF" font-family="'HelveticaNeue-Light'" font-size="28">12</text>
		
			<text transform="matrix(-4.371139e-08 -1 1 -4.371139e-08 778.7917 189.3431)" fill="#FFFFFF" font-family="'HelveticaNeue-Light'" font-size="28">11</text>
		
			<text transform="matrix(-4.371139e-08 -1 1 -4.371139e-08 834.1002 255.4291)" fill="#FFFFFF" font-family="'HelveticaNeue-Light'" font-size="28">13</text>
		
			<text transform="matrix(-4.371139e-08 -1 1 -4.371139e-08 834.1002 189.3431)" fill="#FFFFFF" font-family="'HelveticaNeue-Light'" font-size="28">14</text>
		
			<text transform="matrix(-4.371139e-08 -1 1 -4.371139e-08 834.1002 121.9799)" fill="#FFFFFF" font-family="'HelveticaNeue-Light'" font-size="28">15</text>
		
			<text transform="matrix(-4.371139e-08 -1 1 -4.371139e-08 887.4381 255.4291)" fill="#FFFFFF" font-family="'HelveticaNeue-Light'" font-size="28">16</text>
		
			<text transform="matrix(-4.371139e-08 -1 1 -4.371139e-08 887.4381 121.9799)" fill="#FFFFFF" font-family="'HelveticaNeue-Light'" font-size="28">18</text>
		
			<text transform="matrix(-4.371139e-08 -1 1 -4.371139e-08 887.4381 189.3431)" fill="#FFFFFF" font-family="'HelveticaNeue-Light'" font-size="28">17</text>
		
			<text transform="matrix(-4.371139e-08 -1 1 -4.371139e-08 941.4147 255.4291)" fill="#FFFFFF" font-family="'HelveticaNeue-Light'" font-size="28">19</text>
		
			<text transform="matrix(-4.371139e-08 -1 1 -4.371139e-08 941.4147 189.3431)" fill="#FFFFFF" font-family="'HelveticaNeue-Light'" font-size="28">20</text>
		
			<text transform="matrix(-4.371139e-08 -1 1 -4.371139e-08 941.4147 121.9799)" fill="#FFFFFF" font-family="'HelveticaNeue-Light'" font-size="28">21</text>
		
			<text transform="matrix(-4.371139e-08 -1 1 -4.371139e-08 994.7527 255.4291)" fill="#FFFFFF" font-family="'HelveticaNeue-Light'" font-size="28">22</text>
		
			<text transform="matrix(-4.371139e-08 -1 1 -4.371139e-08 994.7527 121.9799)" fill="#FFFFFF" font-family="'HelveticaNeue-Light'" font-size="28">24</text>
		
			<text transform="matrix(-4.371139e-08 -1 1 -4.371139e-08 994.7527 189.3431)" fill="#FFFFFF" font-family="'HelveticaNeue-Light'" font-size="28">23</text>
		
			<text transform="matrix(-4.371139e-08 -1 1 -4.371139e-08 1049.616 255.4291)" fill="#FFFFFF" font-family="'HelveticaNeue-Light'" font-size="28">25</text>
		
			<text transform="matrix(-4.371139e-08 -1 1 -4.371139e-08 1049.6179 189.3431)" fill="#FFFFFF" font-family="'HelveticaNeue-Light'" font-size="28">26</text>
		
			<text transform="matrix(-4.371139e-08 -1 1 -4.371139e-08 1049.616 121.9799)" fill="#FFFFFF" font-family="'HelveticaNeue-Light'" font-size="28">27</text>
		
			<text transform="matrix(-4.371139e-08 -1 1 -4.371139e-08 1102.9539 255.4291)" fill="#FFFFFF" font-family="'HelveticaNeue-Light'" font-size="28">28</text>
		
			<text transform="matrix(-4.371139e-08 -1 1 -4.371139e-08 1102.9539 121.9799)" fill="#FFFFFF" font-family="'HelveticaNeue-Light'" font-size="28">30</text>
		
			<text transform="matrix(-4.371139e-08 -1 1 -4.371139e-08 1102.9558 189.3431)" fill="#FFFFFF" font-family="'HelveticaNeue-Light'" font-size="28">29</text>
		
			<text transform="matrix(-4.371139e-08 -1 1 -4.371139e-08 1156.0359 255.4291)" fill="#FFFFFF" font-family="'HelveticaNeue-Light'" font-size="28">31</text>
		
			<text transform="matrix(-4.371139e-08 -1 1 -4.371139e-08 1156.0377 189.3431)" fill="#FFFFFF" font-family="'HelveticaNeue-Light'" font-size="28">32</text>
		
			<text transform="matrix(-4.371139e-08 -1 1 -4.371139e-08 1156.0359 121.9799)" fill="#FFFFFF" font-family="'HelveticaNeue-Light'" font-size="28">33</text>
		
			<text transform="matrix(-4.371139e-08 -1 1 -4.371139e-08 1209.3737 255.4291)" fill="#FFFFFF" font-family="'HelveticaNeue-Light'" font-size="28">34</text>
		
			<text transform="matrix(-4.371139e-08 -1 1 -4.371139e-08 1209.3737 121.9799)" fill="#FFFFFF" font-family="'HelveticaNeue-Light'" font-size="28">36</text>
		
			<text transform="matrix(-4.371139e-08 -1 1 -4.371139e-08 1209.3756 189.3431)" fill="#FFFFFF" font-family="'HelveticaNeue-Light'" font-size="28">35</text>
		
			<text transform="matrix(-4.371139e-08 -1 1 -4.371139e-08 1263.6979 128.3353)" fill="#FFFFFF" font-family="'HelveticaNeue-Light'" font-size="28">2-1</text>
		
			<text transform="matrix(-4.371139e-08 -1 1 -4.371139e-08 1263.6979 261.7885)" fill="#FFFFFF" font-family="'HelveticaNeue-Light'" font-size="28">2-1</text>
		
			<text transform="matrix(-4.371139e-08 -1 1 -4.371139e-08 1263.6979 195.6986)" fill="#FFFFFF" font-family="'HelveticaNeue-Light'" font-size="28">2-1</text>
		<text transform="matrix(1 0 0 1 650.3011 300.1436)" fill="#FFFFFF" font-family="'HelveticaNeue-Light'" font-size="24">1st 12</text>
		<text transform="matrix(1 0 0 1 861.6079 300.1436)" fill="#FFFFFF" font-family="'HelveticaNeue-Light'" font-size="24">2nd 12</text>
		<text transform="matrix(1 0 0 1 1079.7288 300.1416)" fill="#FFFFFF" font-family="'HelveticaNeue-Light'" font-size="24">3rd 12</text>
		<text transform="matrix(1 0 0 1 607.7465 339.751)" fill="#FFFFFF" font-family="'HelveticaNeue-Light'" font-size="24">1-18</text>
		<text transform="matrix(1 0 0 1 713.5746 339.751)" fill="#FFFFFF" font-family="'HelveticaNeue-Light'" font-size="24">Even</text>
		<text transform="matrix(1 0 0 1 1041.3618 339.75)" fill="#FFFFFF" font-family="'HelveticaNeue-Light'" font-size="24">Odd</text>
		<text transform="matrix(1 0 0 1 1137.0181 339.751)" fill="#FFFFFF" font-family="'HelveticaNeue-Light'" font-size="24">19-36</text>
		<text transform="matrix(1 0 0 1 828.9476 339.75)" fill="#FFFFFF" font-family="'HelveticaNeue-Light'" font-size="24">Red</text>
		<text transform="matrix(1 0 0 1 928.0649 339.75)" fill="#FFFFFF" font-family="'HelveticaNeue-Light'" font-size="24">Black</text>
	</g>
</g>
<g>
	<g>
		<g>
			<g id="XMLID_2_">
				<g opacity="0.5">
					<path fill="#FF0000" stroke="#FFFFFF" stroke-miterlimit="10" d="M397.228,225.168c0,2.17-0.052,4.34-0.154,6.51l-154.716-6.51
						l153.604-19.684h0.026C396.814,211.942,397.228,218.502,397.228,225.168z"/>
					<path stroke="#FFFFFF" stroke-miterlimit="10" d="M242.358,225.168l154.716,6.51c-0.336,8.944-1.472,17.702-3.308,26.17
						l-151.408-32.654h-0.052l-0.026-0.032L242.358,225.168L242.358,225.168z"/>
					<path stroke="#FFFFFF" stroke-miterlimit="10" d="M395.988,205.484h-0.026l-153.604,19.684h-0.078l0.026-0.026l148.128-45.39
						h0.026C393.018,188.046,394.878,196.648,395.988,205.484z"/>
					<path fill="#FF0000" stroke="#FFFFFF" stroke-miterlimit="10" d="M242.358,225.194l151.408,32.648
						c-1.834,8.686-4.416,17.108-7.672,25.162l-0.052-0.026L242.358,225.194z"/>
					<path fill="#FF0000" stroke="#FFFFFF" stroke-miterlimit="10" d="M390.46,179.752h-0.026l-148.128,45.39l138.364-69.75h0.026
						C384.622,163.168,387.902,171.306,390.46,179.752z"/>
					<path stroke="#FFFFFF" stroke-miterlimit="10" d="M386.042,282.984l0.052,0.026c-3.282,8.196-7.26,16.022-11.832,23.43h-0.026
						l-131.904-81.22l-0.026-0.026h0.052L386.042,282.984z"/>
					<path stroke="#FFFFFF" stroke-miterlimit="10" d="M380.694,155.392h-0.026l-138.362,69.75v-0.026l124.568-92.148
						C372.092,139.996,376.716,147.512,380.694,155.392z"/>
					<path fill="#FF0000" stroke="#FFFFFF" stroke-miterlimit="10" d="M374.236,306.438h0.026
						c-4.624,7.524-9.868,14.626-15.68,21.21l-0.026-0.026L242.332,225.22L374.236,306.438z"/>
					<path fill="#FF0000" stroke="#FFFFFF" stroke-miterlimit="10" d="M366.874,132.968l-124.568,92.148v-0.032l107.182-111.782
						l0.052-0.052C355.868,119.33,361.656,125.916,366.874,132.968z"/>
					<path stroke="#FFFFFF" stroke-miterlimit="10" d="M358.556,327.624l0.026,0.026c-5.786,6.562-12.142,12.632-18.962,18.134
						l-97.366-120.59v-0.032h0.026l0.026,0.032l0.026,0.026L358.556,327.624z"/>
					<path stroke="#FFFFFF" stroke-miterlimit="10" d="M349.54,113.258l-0.052,0.052L242.306,225.09v-0.026l86.722-128.262
						l0.052-0.078C336.364,101.66,343.21,107.188,349.54,113.258z"/>
					<path fill="#FF0000" stroke="#FFFFFF" stroke-miterlimit="10" d="M242.254,225.194l97.366,120.59
						c-6.794,5.528-14.052,10.436-21.75,14.718l-0.026-0.026l-75.59-135.23V225.194z"/>
					<path fill="#FF0000" stroke="#FFFFFF" stroke-miterlimit="10" d="M329.08,96.724l-0.052,0.078l-86.722,128.262l63.808-141.126
						l0.026-0.046C314.174,87.528,321.846,91.816,329.08,96.724z"/>
					<path stroke="#FFFFFF" stroke-miterlimit="10" d="M317.842,360.484l0.026,0.026c-7.622,4.292-15.656,7.93-24.026,10.876
						l-51.588-146.14L317.842,360.484z"/>
					<path stroke="#FFFFFF" stroke-miterlimit="10" d="M306.14,83.886l-0.026,0.046l-63.808,141.132v0.026h-0.026l39.008-149.936
						v-0.026C289.892,77.35,298.184,80.294,306.14,83.886z"/>
					<path fill="#FF0000" stroke="#FFFFFF" stroke-miterlimit="10" d="M242.254,225.246l51.588,146.138
						c-8.19,2.894-16.662,5.088-25.42,6.562v-0.052L242.254,225.246z"/>
					<path fill="#FF0000" stroke="#FFFFFF" stroke-miterlimit="10" d="M281.288,75.128v0.026L242.28,225.09v0.032h-0.026v-0.11
						l13.124-154.25V70.71C264.264,71.46,272.918,72.958,281.288,75.128z"/>
					<path stroke="#FFFFFF" stroke-miterlimit="10" d="M268.424,377.894v0.052c-8.5,1.466-17.256,2.216-26.196,2.216V225.376v-0.11
						v-0.026h0.026L268.424,377.894z"/>
					<rect x="242.28" y="225.09" fill="#FF0000" stroke="#FFFFFF" stroke-miterlimit="10" width="0.026" height="0.032"/>
					<rect x="242.28" y="225.116" fill="#FF0000" stroke="#FFFFFF" stroke-miterlimit="10" width="0.026" height="0.026"/>
					<polygon fill="#FF0000" stroke="#FFFFFF" stroke-miterlimit="10" points="242.306,225.142 242.28,225.168 242.28,225.142 					
						"/>
					<rect x="242.254" y="225.116" stroke="#FFFFFF" stroke-miterlimit="10" width="0.026" height="0.026"/>
					<rect x="242.254" y="225.142" fill="#FF0000" stroke="#FFFFFF" stroke-miterlimit="10" width="0.026" height="0.026"/>
					<path stroke="#FFFFFF" stroke-miterlimit="10" d="M242.254,225.012v0.11l-39.06-149.968v-0.026
						c8.37-2.17,17.024-3.668,25.886-4.416v0.048L242.254,225.012z"/>
					<path fill="#FF0000" stroke="#FFFFFF" stroke-miterlimit="10" d="M242.254,225.116v0.026h-0.026l-0.026-0.052L178.368,83.938
						l-0.026-0.046c7.93-3.59,16.25-6.542,24.852-8.758v0.026L242.254,225.116z"/>
					<rect x="242.228" y="225.142" fill="#FF0000" stroke="#FFFFFF" stroke-miterlimit="10" width="0.026" height="0.026"/>
					<rect x="242.228" y="225.168" fill="#FF0000" stroke="#FFFFFF" stroke-miterlimit="10" width="0.026" height="0.032"/>
					<polygon stroke="#FFFFFF" stroke-miterlimit="10" points="242.254,225.194 242.254,225.246 242.228,225.246 242.228,225.22 
						242.228,225.194 					"/>
					<path stroke="#FFFFFF" stroke-miterlimit="10" d="M242.202,225.09l0.026,0.052h-0.026l-124.594-92.174
						c5.194-7.052,11.006-13.64,17.334-19.71l0.05,0.052L242.202,225.09z"/>
					<rect x="242.202" y="225.142" stroke="#FFFFFF" stroke-miterlimit="10" width="0.026" height="0.026"/>
					<path fill="#FF0000" stroke="#FFFFFF" stroke-miterlimit="10" d="M242.228,225.376v154.792c-8.912,0-17.67-0.75-26.168-2.216
						V377.9L242.228,225.376z"/>
					<path stroke="#FFFFFF" stroke-miterlimit="10" d="M242.228,225.27v0.11L216.06,377.9v0.052
						c-8.758-1.452-17.256-3.668-25.42-6.562L242.228,225.27z"/>
					<path fill="#FF0000" stroke="#FFFFFF" stroke-miterlimit="10" d="M242.228,225.246v0.026L190.64,371.384
						c-8.37-2.952-16.404-6.588-24.026-10.876l0.026-0.026L242.228,225.246z"/>
					<path stroke="#FFFFFF" stroke-miterlimit="10" d="M242.228,225.22v0.026L166.64,360.484l-0.026,0.026
						c-7.698-4.288-14.958-9.196-21.75-14.718L242.228,225.22z"/>
					<path fill="#FF0000" stroke="#FFFFFF" stroke-miterlimit="10" d="M242.228,225.194v0.026l-97.366,120.564
						c-6.846-5.502-13.176-11.574-18.962-18.134l0.026-0.026L242.15,225.248L242.228,225.194z"/>
					<path stroke="#FFFFFF" stroke-miterlimit="10" d="M242.228,225.168v0.032L98.44,282.984l-0.078,0.026
						c-3.23-8.054-5.838-16.476-7.672-25.162l151.512-32.68L242.228,225.168L242.228,225.168z"/>
					<path fill="#FF0000" stroke="#FFFFFF" stroke-miterlimit="10" d="M242.228,225.194l-0.078,0.046l-131.904,81.194l-0.026,0.032
						c-4.598-7.414-8.55-15.268-11.858-23.458l0.078-0.026L242.228,225.194z"/>
					<path stroke="#FFFFFF" stroke-miterlimit="10" d="M178.368,83.938l63.834,141.154l-86.774-128.29l-0.052-0.052
						c7.234-4.908,14.906-9.216,22.966-12.866L178.368,83.938z"/>
					<path fill="#FF0000" stroke="#FFFFFF" stroke-miterlimit="10" d="M242.202,225.142v0.026L88.52,205.484h-0.052
						c1.112-8.834,2.97-17.438,5.528-25.756l0.052,0.026l148.128,45.39L242.202,225.142L242.202,225.142z"/>
					<path fill="#FF0000" stroke="#FFFFFF" stroke-miterlimit="10" d="M155.428,96.802l86.774,128.288L134.994,113.31l-0.05-0.052
						c6.302-6.07,13.148-11.598,20.434-16.506L155.428,96.802z"/>
					<path fill="#FF0000" stroke="#FFFFFF" stroke-miterlimit="10" d="M117.608,132.968l124.594,92.174h-0.026l-138.388-69.75
						h-0.026C107.74,147.512,112.364,139.996,117.608,132.968z"/>
					<path fill="#FF0000" stroke="#FFFFFF" stroke-miterlimit="10" d="M242.202,225.168L90.69,257.848
						c-1.834-8.47-2.97-17.228-3.306-26.17h0.026L242.202,225.168z"/>
					<path stroke="#FFFFFF" stroke-miterlimit="10" d="M242.202,225.168l-154.794,6.51h-0.024c-0.104-2.17-0.156-4.34-0.156-6.51
						c0-6.666,0.414-13.22,1.24-19.684h0.052L242.202,225.168z"/>
					<path stroke="#FFFFFF" stroke-miterlimit="10" d="M103.788,155.392l138.388,69.75l-148.128-45.39l-0.052-0.026
						c2.584-8.448,5.838-16.584,9.764-24.334H103.788z"/>
					<path stroke="#FFFFFF" stroke-miterlimit="10" d="M242.15,225.246L125.926,327.622l-0.026,0.026
						c-5.812-6.588-11.056-13.666-15.68-21.184l0.026-0.032L242.15,225.246z"/>
				</g>
				<g>
					<path fill="none" stroke="#FFFFFF" d="M242.228,380.168c-8.912,0-17.67-0.75-26.168-2.216
						c-8.758-1.452-17.256-3.668-25.42-6.562c-8.37-2.952-16.404-6.588-24.026-10.876c-7.698-4.288-14.958-9.196-21.75-14.718
						c-6.846-5.502-13.176-11.574-18.962-18.134c-5.812-6.588-11.056-13.666-15.68-21.184c-4.598-7.414-8.55-15.268-11.858-23.458
						c-3.23-8.054-5.838-16.476-7.672-25.162c-1.834-8.48-2.97-17.238-3.306-26.178c-0.104-2.17-0.156-4.34-0.156-6.51
						c0-6.666,0.414-13.222,1.24-19.684c1.112-8.834,2.97-17.438,5.528-25.756c2.584-8.448,5.838-16.584,9.764-24.334
						c3.978-7.88,8.602-15.396,13.846-22.424c5.194-7.052,11.006-13.64,17.334-19.71c6.302-6.066,13.148-11.598,20.434-16.506
						c7.234-4.908,14.906-9.216,22.966-12.866c7.93-3.59,16.25-6.542,24.852-8.758c8.37-2.17,17.024-3.668,25.886-4.416
						c4.34-0.368,8.732-0.542,13.148-0.542c4.444,0,8.81,0.18,13.15,0.542c8.886,0.75,17.542,2.248,25.912,4.416
						c8.602,2.216,16.894,5.166,24.852,8.758c8.034,3.642,15.706,7.93,22.94,12.838c7.286,4.934,14.13,10.458,20.46,16.534
						c6.33,6.072,12.116,12.658,17.334,19.71c5.218,7.028,9.842,14.542,13.82,22.424c3.926,7.776,7.208,15.914,9.764,24.36
						c2.558,8.292,4.418,16.896,5.528,25.73c0.828,6.458,1.24,13.02,1.24,19.684c0,2.17-0.052,4.34-0.154,6.51
						c-0.336,8.944-1.472,17.702-3.308,26.17c-1.834,8.686-4.416,17.108-7.672,25.162c-3.282,8.196-7.26,16.022-11.832,23.432
						c-4.624,7.522-9.868,14.626-15.68,21.208c-5.786,6.562-12.142,12.632-18.962,18.134c-6.794,5.528-14.052,10.436-21.75,14.718
						c-7.622,4.292-15.656,7.93-24.026,10.876c-8.19,2.894-16.662,5.088-25.42,6.562
						C259.924,379.418,251.166,380.168,242.228,380.168z"/>
					<line fill="none" stroke="#FFFFFF" x1="242.228" y1="225.376" x2="242.228" y2="380.168"/>
					<line fill="none" stroke="#FFFFFF" x1="242.254" y1="225.246" x2="268.424" y2="377.894"/>
					<line fill="none" stroke="#FFFFFF" x1="242.254" y1="225.246" x2="293.844" y2="371.384"/>
					<line fill="none" stroke="#FFFFFF" x1="242.254" y1="225.246" x2="317.842" y2="360.484"/>
					<polyline fill="none" stroke="#FFFFFF" points="242.254,225.194 339.62,345.784 339.646,345.81 					"/>
					<line fill="none" stroke="#FFFFFF" x1="242.332" y1="225.22" x2="358.556" y2="327.624"/>
					<polyline fill="none" stroke="#FFFFFF" points="242.306,225.194 242.332,225.22 374.236,306.438 					"/>
					<line fill="none" stroke="#FFFFFF" x1="242.358" y1="225.194" x2="386.042" y2="282.984"/>
					<polyline fill="none" stroke="#FFFFFF" points="242.28,225.168 242.306,225.194 242.358,225.194 393.766,257.848 					"/>
					<line fill="none" stroke="#FFFFFF" x1="242.358" y1="225.168" x2="397.074" y2="231.678"/>
					<polyline fill="none" stroke="#FFFFFF" points="242.28,225.168 242.358,225.168 395.962,205.484 					"/>
					<polyline fill="none" stroke="#FFFFFF" points="242.28,225.168 242.306,225.142 390.434,179.752 					"/>
					<line fill="none" stroke="#FFFFFF" x1="242.306" y1="225.142" x2="380.67" y2="155.392"/>
					<polyline fill="none" stroke="#FFFFFF" points="242.254,225.168 242.28,225.168 242.28,225.142 242.306,225.142 
						242.306,225.116 366.874,132.968 366.9,132.968 					"/>
					<line fill="none" stroke="#FFFFFF" x1="242.306" y1="225.09" x2="349.488" y2="113.31"/>
					<line fill="none" stroke="#FFFFFF" x1="242.306" y1="225.064" x2="329.028" y2="96.802"/>
					<polyline fill="none" stroke="#FFFFFF" points="242.28,225.116 242.306,225.116 242.306,225.09 					"/>
					<polyline fill="none" stroke="#FFFFFF" points="242.28,225.09 242.306,225.09 242.306,225.064 306.114,83.938 					"/>
					<polyline fill="none" stroke="#FFFFFF" points="242.254,225.142 242.28,225.142 242.28,225.116 					"/>
					<polyline fill="none" stroke="#FFFFFF" points="242.254,225.116 242.28,225.116 242.28,225.09 281.288,75.154 					"/>
					<line fill="none" stroke="#FFFFFF" x1="242.254" y1="225.012" x2="255.378" y2="70.762"/>
					<polyline fill="none" stroke="#FFFFFF" points="242.254,225.116 242.254,225.012 229.08,70.762 					"/>
					<polyline fill="none" stroke="#FFFFFF" points="242.254,225.142 242.254,225.116 203.194,75.154 					"/>
					<line fill="none" stroke="#FFFFFF" x1="242.202" y1="225.09" x2="178.368" y2="83.938"/>
					<line fill="none" stroke="#FFFFFF" x1="242.202" y1="225.09" x2="155.428" y2="96.802"/>
					<polyline fill="none" stroke="#FFFFFF" points="242.254,225.168 242.254,225.142 242.228,225.142 242.202,225.09 
						134.994,113.31 					"/>
					<polyline fill="none" stroke="#FFFFFF" points="242.202,225.142 117.608,132.968 117.582,132.968 					"/>
					<line fill="none" stroke="#FFFFFF" x1="242.176" y1="225.142" x2="103.788" y2="155.392"/>
					<polyline fill="none" stroke="#FFFFFF" points="242.228,225.168 242.228,225.142 242.202,225.142 					"/>
					<polyline fill="none" stroke="#FFFFFF" points="242.202,225.168 242.202,225.142 242.176,225.142 94.048,179.752 					"/>
					<line fill="none" stroke="#FFFFFF" x1="242.202" y1="225.168" x2="88.52" y2="205.484"/>
					<line fill="none" stroke="#FFFFFF" x1="242.202" y1="225.168" x2="87.408" y2="231.678"/>
					<polyline fill="none" stroke="#FFFFFF" points="242.228,225.168 242.202,225.168 90.69,257.848 					"/>
					<line fill="none" stroke="#FFFFFF" x1="242.228" y1="225.194" x2="98.44" y2="282.984"/>
					<line fill="none" stroke="#FFFFFF" x1="242.15" y1="225.246" x2="110.246" y2="306.438"/>
					<polyline fill="none" stroke="#FFFFFF" points="242.254,225.168 242.228,225.168 242.228,225.194 242.15,225.246 
						125.926,327.624 					"/>
					<polyline fill="none" stroke="#FFFFFF" points="242.228,225.22 144.862,345.784 144.836,345.81 					"/>
					<line fill="none" stroke="#FFFFFF" x1="242.228" y1="225.246" x2="166.64" y2="360.484"/>
					<line fill="none" stroke="#FFFFFF" x1="242.228" y1="225.27" x2="190.64" y2="371.384"/>
					<polyline fill="none" stroke="#FFFFFF" points="242.254,225.194 242.228,225.194 242.228,225.22 242.228,225.246 					"/>
					<polyline fill="none" stroke="#FFFFFF" points="242.254,225.168 242.254,225.194 242.254,225.246 242.228,225.246 
						242.228,225.27 242.228,225.376 216.06,377.894 					"/>
				</g>
			</g>
		</g>
	</g>
	<path fill="#159211" stroke="#FFFFFF" d="M372.778,225.334c0-71.4-57.766-129.166-129.166-129.166
		c-71.402,0-129.166,57.766-129.166,129.166c0,71.402,57.764,129.166,129.166,129.166
		C315.012,354.5,372.778,296.736,372.778,225.334z"/>
</g>
<g>
	<text transform="matrix(1 0 0 1 237.0864 87.9453)" fill="#FFFFFF" font-family="'HelveticaNeue-Light'" font-size="14">0</text>
	
		<text transform="matrix(0.6561 -0.7547 0.7547 0.6561 133.3817 141.2115)" fill="#FFFFFF" font-family="'HelveticaNeue-Light'" font-size="14.0003">28</text>
	
		<text transform="matrix(0.9848 -0.1736 0.1736 0.9848 210.8168 91.0997)" fill="#FFFFFF" font-family="'HelveticaNeue-Light'" font-size="13.9998">26</text>
	
		<text transform="matrix(-0.829 0.5592 -0.5592 -0.829 327.677 334.5591)" fill="#FFFFFF" font-family="'HelveticaNeue-Light'" font-size="13.9996">30</text>
	
		<text transform="matrix(-0.7193 0.6947 -0.6947 -0.7193 343.0817 318.4269)" fill="#FFFFFF" font-family="'HelveticaNeue-Light'" font-size="14">11</text>
	
		<text transform="matrix(0.5299 -0.848 0.848 0.5299 123.7973 158.1553)" fill="#FFFFFF" font-family="'HelveticaNeue-Light'" font-size="13.9979">7</text>
	
		<text transform="matrix(-0.5878 -0.809 0.809 -0.5878 137.6961 313.7097)" fill="#FFFFFF" font-family="'HelveticaNeue-Light'" font-size="13.9999">20</text>
	
		<text transform="matrix(0.9848 0.1736 -0.1736 0.9848 256.8771 89.4507)" fill="#FFFFFF" font-family="'HelveticaNeue-Light'" font-size="13.9998">32</text>
	
		<text transform="matrix(0.2079 0.9781 -0.9781 0.2079 375.2485 186.9688)" fill="#FFFFFF" font-family="'HelveticaNeue-Light'" font-size="13.9979">17</text>
	
		<text transform="matrix(-0.9962 -0.0872 0.0872 -0.9962 235.7547 361.7765)" fill="#FFFFFF" font-family="'HelveticaNeue-Light'" font-size="14.0001">5</text>
	
		<text transform="matrix(0.0349 -0.9994 0.9994 0.0349 105.6202 228.7219)" fill="#FFFFFF" font-family="'HelveticaNeue-Light'" font-size="14.0001">22</text>
	
		<text transform="matrix(0.0349 0.9994 -0.9994 0.0349 380.3061 211.013)" fill="#FFFFFF" font-family="'HelveticaNeue-Light'" font-size="14.0001">34</text>
	
		<text transform="matrix(0.9455 0.3256 -0.3256 0.9455 279.2198 94.0732)" fill="#FFFFFF" font-family="'HelveticaNeue-Light'" font-size="13.9999">15</text>
	
		<text transform="matrix(0.9455 -0.3256 0.3256 0.9455 192.3181 98.181)" fill="#FFFFFF" font-family="'HelveticaNeue-Light'" font-size="13.9999">3</text>
	
		<text transform="matrix(-0.9659 -0.2588 0.2588 -0.9659 216.1212 361.5973)" fill="#FFFFFF" font-family="'HelveticaNeue-Light'" font-size="13.9996">24</text>
	
		<text transform="matrix(-0.1219 -0.9925 0.9925 -0.1219 106.7658 247.5887)" fill="#FFFFFF" font-family="'HelveticaNeue-Light'" font-size="13.9982">9</text>
	
		<text transform="matrix(-0.5878 0.809 -0.809 -0.5878 358.8235 300.1862)" fill="#FFFFFF" font-family="'HelveticaNeue-Light'" font-size="13.9999">36</text>
	
		<text transform="matrix(-0.454 0.891 -0.891 -0.454 369.5362 279.0424)" fill="#FFFFFF" font-family="'HelveticaNeue-Light'" font-size="14">13</text>
	
		<text transform="matrix(-0.7193 -0.6947 0.6947 -0.7193 149.2943 327.7874)" fill="#FFFFFF" font-family="'HelveticaNeue-Light'" font-size="14">1</text>
	
		<text transform="matrix(-0.2924 0.9563 -0.9563 -0.2924 376.9666 257.4617)" fill="#FFFFFF" font-family="'HelveticaNeue-Light'" font-size="14.0001">27</text>
	
		<text transform="matrix(-0.9962 0.0872 -0.0872 -0.9962 262.9352 362.6144)" fill="#FFFFFF" font-family="'HelveticaNeue-Light'" font-size="14.0001">10</text>
	
		<text transform="matrix(0.3746 0.9272 -0.9272 0.3746 367.3296 165.0032)" fill="#FFFFFF" font-family="'HelveticaNeue-Light'" font-size="14.0002">25</text>
	
		<text transform="matrix(0.3746 -0.9272 0.9272 0.3746 112.0296 182.63)" fill="#FFFFFF" font-family="'HelveticaNeue-Light'" font-size="14.0002">29</text>
	
		<text transform="matrix(0.7771 -0.6293 0.6293 0.7771 149.0661 124.7454)" fill="#FFFFFF" font-family="'HelveticaNeue-Light'" font-size="13.9979">12</text>
	
		<text transform="matrix(-0.9136 0.4067 -0.4067 -0.9136 303.1167 350.2097)" fill="#FFFFFF" font-family="'HelveticaNeue-Light'" font-size="14.0002">8</text>
	
		<text transform="matrix(0.8746 0.4848 -0.4848 0.8746 301.152 100.4044)" fill="#FFFFFF" font-family="'HelveticaNeue-Light'" font-size="13.9997">19</text>
	
		<text transform="matrix(-0.2924 -0.9563 0.9563 -0.2924 114.1731 274.4036)" fill="#FFFFFF" font-family="'HelveticaNeue-Light'" font-size="14.0001">31</text>
	
		<text transform="matrix(0.2079 -0.9781 0.9781 0.2079 106.7015 205.4987)" fill="#FFFFFF" font-family="'HelveticaNeue-Light'" font-size="13.9979">18</text>
	
		<text transform="matrix(-0.1219 0.9925 -0.9925 -0.1219 378.8542 239.0703)" fill="#FFFFFF" font-family="'HelveticaNeue-Light'" font-size="13.9982">6</text>
	
		<text transform="matrix(0.6561 0.7547 -0.7547 0.6561 338.4127 127.862)" fill="#FFFFFF" font-family="'HelveticaNeue-Light'" font-size="14.0003">21</text>
	
		<text transform="matrix(-0.829 -0.5592 0.5592 -0.829 172.3886 343.7133)" fill="#FFFFFF" font-family="'HelveticaNeue-Light'" font-size="13.9996">33</text>
	
		<text transform="matrix(-0.9136 -0.4067 0.4067 -0.9136 193.2324 353.958)" fill="#FFFFFF" font-family="'HelveticaNeue-Light'" font-size="14.0002">16</text>
	
		<text transform="matrix(0.7771 0.6293 -0.6293 0.7771 325.5029 116.3398)" fill="#FFFFFF" font-family="'HelveticaNeue-Light'" font-size="13.9979">4</text>
	
		<text transform="matrix(-0.9659 0.2588 -0.2588 -0.9659 284.6374 356.1907)" fill="#FFFFFF" font-family="'HelveticaNeue-Light'" font-size="13.9996">23</text>
	
		<text transform="matrix(0.8746 -0.4848 0.4848 0.8746 167.8224 109.8335)" fill="#FFFFFF" font-family="'HelveticaNeue-Light'" font-size="13.9997">35</text>
	
		<text transform="matrix(-0.454 -0.891 0.891 -0.454 124.5644 294.0273)" fill="#FFFFFF" font-family="'HelveticaNeue-Light'" font-size="14">14</text>
	
		<text transform="matrix(0.5299 0.848 -0.848 0.5299 356.1391 150.3707)" fill="#FFFFFF" font-family="'HelveticaNeue-Light'" font-size="13.9979">2</text>
</g>
</svg>
